<?xml version="1.0" standalone="no"?><svg xmlns="http://www.w3.org/2000/svg" viewBox="0 0 1440 320"><path fill="#fbcfe8" fill-opacity="1" d="M0,256L13.3,250.7C26.7,245,53,235,80,197.3C106.7,160,133,96,160,80C186.7,64,213,96,240,128C266.7,160,293,192,320,197.3C346.7,203,373,181,400,181.3C426.7,181,453,203,480,197.3C506.7,192,533,160,560,154.7C586.7,149,613,171,640,176C666.7,181,693,171,720,176C746.7,181,773,203,800,186.7C826.7,171,853,117,880,133.3C906.7,149,933,235,960,245.3C986.7,256,1013,192,1040,160C1066.7,128,1093,128,1120,122.7C1146.7,117,1173,107,1200,122.7C1226.7,139,1253,181,1280,181.3C1306.7,181,1333,139,1360,149.3C1386.7,160,1413,224,1427,256L1440,288L1440,0L1426.7,0C1413.3,0,1387,0,1360,0C1333.3,0,1307,0,1280,0C1253.3,0,1227,0,1200,0C1173.3,0,1147,0,1120,0C1093.3,0,1067,0,1040,0C1013.3,0,987,0,960,0C933.3,0,907,0,880,0C853.3,0,827,0,800,0C773.3,0,747,0,720,0C693.3,0,667,0,640,0C613.3,0,587,0,560,0C533.3,0,507,0,480,0C453.3,0,427,0,400,0C373.3,0,347,0,320,0C293.3,0,267,0,240,0C213.3,0,187,0,160,0C133.3,0,107,0,80,0C53.3,0,27,0,13,0L0,0Z"></path></svg>